PathFileType	4	(X/Y/Z)	Patient4_TMGait_0pt8_01_right_40.trc.trc
DataRate	CameraRate	NumFrames	NumMarkers	Units	OrigDataRate	OrigDataStartFrame	OrigNumFrames
88.050314465409	88.050314465409	4	33	mm	88.050314465409	89	       141
Frame#	Time	Sacral			L.Shoulder			Chest			R.Shoulder			Neck			R.ASIS			L.ASIS			R.Thigh.Superior			R.Thigh.Lateral			R.Thigh.Inferior			R.Patella			L.Thigh.Superior			L.Thigh.Lateral			L.Thigh.Inferior			L.Patella			L.Shank.Superior			L.Shank.Lateral			L.Shank.Inferior			R.Shank.Superior			R.Shank.Lateral			R.Shank.Inferior			R.Heel			R.Midfoot.Superior			R.Midfoot.Lateral			R.Toe			L.Heel			L.Midfoot.Lateral			L.Midfoot.Superior			L.Toe			L.Elbow			L.Wrist			R.Elbow			R.Wrist			
		X1	Y1	Z1	X2	Y2	Z2	X3	Y3	Z3	X4	Y4	Z4	X5	Y5	Z5	X6	Y6	Z6	X7	Y7	Z7	X8	Y8	Z8	X9	Y9	Z9	X10	Y10	Z10	X11	Y11	Z11	X12	Y12	Z12	X13	Y13	Z13	X14	Y14	Z14	X15	Y15	Z15	X16	Y16	Z16	X17	Y17	Z17	X18	Y18	Z18	X19	Y19	Z19	X20	Y20	Z20	X21	Y21	Z21	X22	Y22	Z22	X23	Y23	Z23	X24	Y24	Z24	X25	Y25	Z25	X26	Y26	Z26	X27	Y27	Z27	X28	Y28	Z28	X29	Y29	Z29	X30	Y30	Z30	X31	Y31	Z31	X32	Y32	Z32	X33	Y33	Z33	

89	45.879428571429	875.331731457253	1004.809256222388	451.336366472442	1036.584824532857	1431.231705430452	271.255845627908	1151.473543093855	1362.808047048566	425.071603738682	1077.756837596841	1435.492721330859	604.343067054779	1027.882925237506	1490.658740576151	427.740730967628	1101.278336444129	932.316239995061	560.029682368957	1084.534910020539	958.262440377194	287.777980262147	1126.645676523519	723.664289586116	541.505172718382	1037.942467027513	619.927926654037	606.688731832490	1115.639430967494	554.992673046895	534.806673605091	1097.031524138980	446.604433508485	555.434695712583	1153.074185797623	763.158951154309	312.241410633620	1076.996294434914	637.506111532717	253.696577089751	1174.408917771806	570.374848864589	312.129841520885	1184.116602765128	501.080736171190	321.340288448366	1163.878054380125	426.347562723851	313.560365230818	1083.363140697781	304.371002795713	266.183717989519	1148.055185215361	198.361224146906	334.373586061308	1013.567335165270	385.029843921830	560.605036811025	888.165297170027	357.630161729429	619.449171438924	865.552399668016	249.379789480188	570.943359217707	660.269489964884	200.961481313575	536.927188516735	822.340579710214	133.311294652273	586.205250708547	712.143070310531	139.612258869809	613.473396802249	877.449058124864	29.808606749088	614.495339214440	1033.231624824391	38.317957732222	380.260238485227	1104.507359680161	35.524689057561	296.939943456242	1186.882286892123	98.526633296456	321.651071470622	1314.865590859949	50.383760079026	289.535549043111	929.606053850527	1093.174595243602	173.543988070546	904.032304683916	835.619258393745	176.345966037585	1156.238729809760	1097.933349421791	716.380635834789	1392.327912209552	1151.084891946779	652.653919628346	
90	45.890785714286	874.247312364935	1006.020075084535	448.244724460553	1037.616626508829	1432.681874281625	269.119270275359	1151.031251644043	1364.092820402787	423.908361841457	1075.748129400277	1436.516426949163	602.660930988740	1027.579793473718	1491.989862664165	425.691015527988	1099.991235892464	933.670812466026	558.096734067541	1084.288543630674	959.648279647468	285.823815430435	1131.779219020852	727.266612918772	539.395662928496	1046.769851290219	621.163883639727	604.681318853401	1126.726356521759	558.150032104850	532.809801405432	1110.178139845273	448.404849292327	553.567858384849	1150.654318500617	762.112174430897	309.409358397663	1072.299312703644	637.695607597762	252.022565019473	1168.487702694297	569.337661266492	310.752405292409	1177.127981673318	500.308759665342	320.268450032770	1156.571895020869	425.851494482952	312.534320966514	1075.537517319678	304.162172714157	265.424996978647	1139.528814512364	198.106174829898	334.055862271803	1025.265638592156	387.167674764815	558.490617582694	898.644867641044	363.808540584793	617.112146643044	873.269830645092	256.012155642817	569.284567459678	667.745288755129	216.660789049299	534.306848309601	825.821509897675	139.913012771725	585.127365552215	715.584333612412	152.462082049281	611.395477252694	874.175090604759	30.070103699137	614.193515890209	1024.053515100930	38.263137581439	380.213991816649	1095.316607378034	35.420759019486	296.898886153251	1177.709547325661	98.422512316822	321.626625188037	1305.697297397369	50.287922646406	289.497320505228	937.890328555641	1092.043092344548	169.567798153587	924.112163821065	833.337171548240	172.359300665267	1142.903058914149	1095.461897174484	713.931424617952	1382.944163151851	1133.649806933302	653.095276707963	
91	45.902142857143	873.067660756161	1007.121577213172	445.252149785074	1038.702214220666	1433.982536141262	267.113770498863	1150.509827004646	1365.220526783755	422.948090922005	1073.558166356423	1437.396491387826	601.124360587779	1027.238528535153	1493.211632851135	423.779230583057	1098.546716115076	934.957929943207	556.378869943554	1083.907545938925	960.911846735188	284.051318931582	1136.704399951898	731.194391906483	537.294445315670	1055.557284192619	622.849060095441	602.777832355909	1137.603897018973	561.886969122988	530.806623304469	1123.389780465341	450.887325146179	551.590750644576	1147.930965077620	761.064493840880	307.073116696652	1067.648407429147	637.970165645785	250.339977306375	1162.432421202788	568.361969655604	309.541234910909	1169.957686913637	499.539721349048	319.212942638596	1149.129585241849	425.377635591412	311.526917641445	1067.657820378807	303.949809646176	264.562920164544	1130.949486717783	197.864139337510	333.703610143874	1037.305987645093	389.778845251188	556.295916882979	909.700856080988	369.899032133321	614.695115578692	881.972459506315	262.581443078894	567.394416388475	676.564895801657	231.029532973256	531.514673985719	830.855347124311	146.573606029616	583.616073799413	720.798137795266	164.504738948815	609.074005593524	873.239403071452	31.170569408061	613.474538946143	1014.861118765179	38.225409885745	380.152143529402	1086.119005989004	35.313477471302	296.840675172077	1168.551651536472	98.294959595914	321.581353945257	1296.537094910907	50.122724233368	289.468239662932	946.540558373130	1090.954454106572	165.554587698031	945.165876316090	831.602162096235	168.473041045490	1129.356363500823	1093.243934513442	711.433963024064	1372.670329883176	1114.848838274686	653.879809954916	
92	45.913500000000	871.821381124203	1008.101053189317	442.350281079605	1039.815079224735	1435.135606791309	265.253385513162	1149.910498228024	1366.193709449263	422.182861692202	1071.210071540722	1438.135137633692	599.729515265862	1026.864743926432	1494.320707738932	422.012319744456	1096.968263261580	936.192520729197	554.835674699151	1083.422159835023	962.064191481572	282.425818698645	1141.344695298299	735.431026942763	535.149998538104	1064.218041879297	624.996534874437	600.985743449418	1148.167508703337	566.194447336613	528.822918685183	1136.557699080452	454.051043498820	549.608447297922	1144.997987496291	760.066983179487	305.199100688780	1063.079930240073	638.311859160477	248.671602894574	1156.334974470668	567.452049015653	308.460284688384	1162.721601794631	498.780845159688	318.186139640285	1141.651753707945	424.924317753824	310.545781077208	1059.778712821184	303.753762983866	263.629085542650	1122.359748588779	197.629436317841	333.319615023265	1049.585957799182	392.857172775538	554.133061731983	921.203899482743	375.789866334329	612.266348795764	891.616701016200	268.913392951046	565.353620217744	686.531683301268	243.606398687130	528.677224785201	837.529109723547	153.038825752473	581.687079657756	727.785736320718	175.281126330058	606.581979756829	875.028272990241	33.134818278589	612.254466704051	1005.665655547791	38.205189859722	380.073397691928	1076.923425015671	35.211755445285	296.764039967278	1159.412122450847	98.157269481445	321.514528045598	1287.388798152055	49.912535451517	289.439884729979	955.603501725019	1089.929336190855	161.509765110441	967.108051042007	830.519510720495	164.721460676589	1115.778408696117	1091.323855552642	708.923543296194	1361.374329417285	1094.803868420070	655.004469251119	
